<?xml version="1.0" standalone="no"?>
<!DOCTYPE svg PUBLIC "-//W3C//DTD SVG 20010904//EN"
 "http://www.w3.org/TR/2001/REC-SVG-20010904/DTD/svg10.dtd">
<svg version="1.0" xmlns="http://www.w3.org/2000/svg"
 width="600.000000pt" height="120.000000pt" viewBox="0 0 600.000000 120.000000"
 preserveAspectRatio="xMidYMid meet">

<g transform="translate(0.000000,120.000000) scale(0.100000,-0.100000)"
fill="#000000" stroke="none">
<path d="M498 1164 c-201 -48 -369 -215 -423 -419 -19 -76 -19 -204 0 -280 48
-188 192 -345 373 -407 96 -33 259 -33 354 0 144 50 265 156 328 287 45 95 60
159 60 263 0 160 -54 288 -169 402 -144 143 -336 200 -523 154z m251 -69 c89
-23 163 -65 227 -129 201 -201 201 -521 1 -721 -100 -100 -210 -145 -353 -145
-280 0 -498 221 -498 505 1 231 151 430 371 490 65 18 186 18 252 0z"/>
<path d="M488 1041 c-163 -52 -281 -193 -309 -369 -40 -245 137 -488 381 -521
272 -37 518 175 520 446 0 156 -80 308 -208 393 -102 68 -264 89 -384 51z
m-58 -247 c0 -4 -7 -12 -15 -18 -13 -9 -15 -28 -13 -86 l3 -75 51 47 c61 57
83 93 66 110 -22 22 -12 28 48 28 33 0 60 -1 60 -2 0 -2 -34 -39 -75 -82 -41
-44 -75 -83 -75 -88 0 -17 118 -184 141 -201 23 -15 22 -16 -45 -16 -60 -1
-67 1 -56 14 10 12 5 27 -31 81 -77 119 -89 121 -89 17 0 -57 4 -81 17 -95 15
-17 14 -18 -45 -18 -66 0 -71 3 -47 26 12 12 15 46 15 169 0 123 -3 157 -15
169 -24 23 -19 26 45 26 33 0 60 -3 60 -6z m510 -48 c0 -57 -14 -66 -36 -24
-20 39 -31 48 -61 48 -23 0 -23 0 -23 -165 0 -138 3 -167 15 -171 33 -13 12
-24 -45 -24 -57 0 -78 11 -45 24 12 4 15 33 15 171 0 165 0 165 -22 165 -30 0
-42 -9 -59 -44 -21 -43 -34 -37 -37 17 l-3 47 150 0 151 0 0 -44z"/>
<path d="M1963 753 c-61 -11 -85 -116 -39 -170 19 -22 32 -28 66 -28 57 0 90
37 90 100 0 69 -49 110 -117 98z m65 -45 c7 -7 12 -30 12 -53 0 -23 -5 -46
-12 -53 -15 -15 -61 -15 -76 0 -15 15 -16 72 -2 99 12 22 59 26 78 7z"/>
<path d="M3163 753 c-58 -11 -84 -113 -43 -166 36 -46 115 -44 140 3 9 16 8
22 -6 27 -10 4 -20 0 -26 -10 -10 -20 -58 -23 -76 -5 -16 16 -16 90 0 106 15
15 64 16 73 2 9 -15 35 -12 35 4 0 27 -50 47 -97 39z"/>
<path d="M3793 753 c-61 -11 -85 -116 -39 -170 19 -22 32 -28 66 -28 57 0 90
37 90 100 0 69 -49 110 -117 98z m67 -52 c14 -27 13 -84 -2 -99 -15 -15 -61
-15 -76 0 -16 16 -16 90 0 106 19 19 66 15 78 -7z"/>
<path d="M4383 753 c-58 -11 -84 -113 -43 -166 36 -46 115 -44 140 3 9 16 8
22 -6 27 -10 4 -20 0 -26 -10 -10 -20 -58 -23 -76 -5 -16 16 -16 90 0 106 15
15 64 16 73 2 9 -15 35 -12 35 4 0 27 -50 47 -97 39z"/>
<path d="M1350 655 c0 -88 1 -95 20 -95 17 0 20 7 20 43 l1 42 37 -42 c24 -28
46 -43 61 -43 22 0 20 3 -18 49 l-41 48 35 44 c29 37 32 45 18 48 -10 2 -32
-14 -55 -40 l-37 -44 -1 43 c0 35 -3 42 -20 42 -19 0 -20 -7 -20 -95z"/>
<path d="M1540 672 c0 -99 11 -117 74 -117 67 0 80 18 84 115 4 76 3 80 -17
80 -19 0 -21 -6 -21 -64 0 -83 -6 -96 -41 -96 -37 0 -49 24 -49 99 0 48 -3 61
-15 61 -12 0 -15 -15 -15 -78z"/>
<path d="M1750 655 l0 -95 60 0 c47 0 60 3 60 15 0 11 -11 15 -40 15 l-40 0 0
80 c0 73 -2 80 -20 80 -19 0 -20 -7 -20 -95z"/>
<path d="M2120 655 l0 -95 64 0 c58 0 67 3 85 26 31 39 29 107 -4 139 -20 21
-34 25 -85 25 l-60 0 0 -95z m114 49 c19 -18 21 -85 4 -102 -7 -7 -27 -12 -45
-12 l-33 0 0 65 0 65 29 0 c16 0 37 -7 45 -16z"/>
<path d="M2351 665 c-17 -47 -31 -90 -31 -96 0 -18 38 -9 43 11 4 16 14 20 45
20 31 0 41 -4 45 -20 3 -12 14 -20 26 -20 20 0 20 3 -13 93 -29 80 -36 92 -58
95 -24 3 -28 -3 -57 -83z m79 -22 c0 -7 -12 -13 -26 -13 -20 0 -25 4 -20 16 3
9 9 28 13 42 l6 27 13 -30 c7 -16 13 -36 14 -42z"/>
<path d="M2510 745 c0 -2 14 -27 30 -55 20 -33 30 -64 30 -90 0 -33 3 -40 20
-40 16 0 20 7 20 38 0 23 11 56 30 87 35 59 36 65 12 65 -11 0 -25 -14 -35
-35 -9 -19 -20 -35 -25 -35 -5 0 -16 16 -25 35 -11 23 -24 35 -37 35 -11 0
-20 -2 -20 -5z"/>
<path d="M2750 735 c0 -10 10 -15 30 -15 l30 0 0 -80 c0 -73 2 -80 20 -80 18
0 20 7 20 80 0 79 0 80 25 80 16 0 25 6 25 15 0 12 -15 15 -75 15 -60 0 -75
-3 -75 -15z"/>
<path d="M2940 655 l0 -95 65 0 c51 0 65 3 65 15 0 11 -12 15 -50 15 -46 0
-50 2 -50 24 0 22 5 25 42 28 57 4 62 26 6 30 -36 2 -44 7 -46 26 -3 20 0 22
47 22 39 0 51 4 51 15 0 12 -14 15 -65 15 l-65 0 0 -95z"/>
<path d="M3300 655 c0 -88 1 -95 20 -95 17 0 20 7 20 46 l0 45 43 -3 c42 -3
42 -3 45 -45 3 -35 7 -43 23 -43 17 0 19 8 19 95 0 88 -1 95 -20 95 -16 0 -20
-7 -20 -35 0 -35 0 -35 -45 -35 -45 0 -45 0 -45 35 0 28 -4 35 -20 35 -19 0
-20 -7 -20 -95z"/>
<path d="M3520 655 c0 -88 1 -95 20 -95 18 0 20 7 20 68 l0 67 41 -67 c27 -47
46 -68 60 -68 17 0 19 8 19 95 0 76 -3 95 -15 95 -10 0 -15 -16 -17 -62 l-3
-63 -39 63 c-30 47 -44 62 -62 62 -24 0 -24 -2 -24 -95z"/>
<path d="M3950 655 c0 -88 1 -95 20 -95 16 0 20 7 20 35 0 33 2 35 33 35 46 0
70 21 70 58 0 49 -17 62 -84 62 l-59 0 0 -95z m105 55 c14 -22 -6 -50 -36 -50
-26 0 -29 3 -29 30 0 27 3 30 29 30 17 0 33 -5 36 -10z"/>
<path d="M4175 738 c-18 -48 -55 -163 -55 -170 0 -17 32 -7 37 12 4 16 14 20
45 20 31 0 41 -4 45 -20 5 -19 43 -29 43 -12 0 4 -13 46 -28 92 -26 76 -32 85
-55 88 -16 2 -29 -2 -32 -10z m55 -95 c0 -7 -11 -13 -25 -13 -28 0 -30 4 -13
51 l12 34 12 -30 c7 -17 13 -36 14 -42z"/>
<path d="M4520 655 c0 -88 1 -95 20 -95 17 0 20 7 20 43 l0 42 36 -42 c20 -24
44 -43 55 -43 26 0 24 5 -17 55 l-36 44 37 46 c33 40 35 45 17 45 -12 0 -36
-18 -56 -42 l-36 -42 0 42 c0 35 -3 42 -20 42 -19 0 -20 -7 -20 -95z"/>
<path d="M4770 655 c0 -88 1 -95 20 -95 16 0 20 7 20 35 0 33 2 35 33 35 40 0
67 25 67 63 0 41 -24 57 -86 57 l-54 0 0 -95z m95 35 c0 -20 -6 -26 -27 -28
-25 -3 -28 0 -28 28 0 28 3 31 28 28 21 -2 27 -8 27 -28z"/>
<path d="M4963 656 c29 -88 33 -96 57 -96 24 0 28 8 57 96 31 94 31 95 10 92
-17 -2 -26 -17 -42 -70 -11 -38 -23 -68 -26 -68 -3 0 -14 30 -25 68 -15 54
-23 68 -41 70 -21 3 -21 2 10 -92z"/>
<path d="M5120 735 c0 -10 10 -15 30 -15 l30 0 0 -80 c0 -73 2 -80 20 -80 18
0 20 7 20 80 0 79 0 80 25 80 16 0 25 6 25 15 0 12 -15 15 -75 15 -60 0 -75
-3 -75 -15z"/>
<path d="M5370 655 l0 -95 65 0 c51 0 65 3 65 15 0 11 -12 15 -45 15 l-45 0 0
80 c0 73 -2 80 -20 80 -19 0 -20 -7 -20 -95z"/>
<path d="M5510 735 c0 -10 10 -15 30 -15 l30 0 0 -80 c0 -73 2 -80 20 -80 18
0 20 7 20 80 0 79 0 80 25 80 16 0 25 6 25 15 0 12 -15 15 -75 15 -60 0 -75
-3 -75 -15z"/>
<path d="M5690 655 l0 -95 64 0 c58 0 67 3 85 26 31 39 29 107 -4 139 -20 21
-34 25 -85 25 l-60 0 0 -95z m114 49 c19 -18 21 -85 4 -102 -7 -7 -27 -12 -45
-12 l-33 0 0 65 0 65 29 0 c16 0 37 -7 45 -16z"/>
</g>
</svg>
