<?xml version="1.0" standalone="no"?>
<!DOCTYPE svg PUBLIC "-//W3C//DTD SVG 20010904//EN"
 "http://www.w3.org/TR/2001/REC-SVG-20010904/DTD/svg10.dtd">
<svg version="1.0" xmlns="http://www.w3.org/2000/svg"
 width="346.000000pt" height="146.000000pt" viewBox="0 0 346.000000 146.000000"
 preserveAspectRatio="xMidYMid meet">

<g transform="translate(0.000000,146.000000) scale(0.100000,-0.100000)"
fill="#000000" stroke="none">
<path d="M345 1393 c-61 -73 -145 -236 -165 -317 -12 -53 -15 -251 -4 -282 4
-11 3 -16 -2 -11 -5 5 -13 21 -19 37 l-10 29 -72 -87 c-71 -86 -72 -88 -73
-145 l0 -58 97 2 98 2 3 -37 c3 -35 5 -36 41 -36 l38 0 7 -68 c12 -126 19
-162 27 -156 5 3 9 54 9 115 0 108 0 109 24 109 23 0 24 -1 33 -148 5 -81 12
-140 15 -132 4 8 12 149 19 313 6 163 14 295 17 292 5 -5 30 -610 31 -753 2
-121 18 -52 25 100 3 84 9 192 12 241 l7 87 58 0 c56 0 59 1 65 28 3 15 7 31
8 36 1 5 41 8 89 7 l87 -2 0 59 c0 56 -3 62 -61 140 -34 45 -64 82 -69 82 -4
0 -11 -15 -17 -32 -7 -25 -9 3 -9 107 1 129 -1 146 -27 219 -15 43 -46 109
-67 147 -39 65 -134 179 -150 179 -5 0 -34 -30 -65 -67z m135 -221 c27 -33 25
-75 -4 -108 -70 -82 -192 24 -126 109 33 42 97 42 130 -1z"/>
<path d="M1085 960 c0 -223 1 -314 2 -203 2 112 2 294 0 405 -1 112 -2 21 -2
-202z"/>
<path d="M2880 1340 c-12 -12 -20 -33 -20 -55 0 -28 -4 -35 -20 -35 -11 0 -20
-5 -20 -11 0 -6 9 -13 20 -16 18 -5 20 -14 20 -94 0 -72 3 -89 15 -89 12 0 15
17 15 90 0 89 0 90 25 90 16 0 25 6 25 15 0 9 -9 15 -25 15 -20 0 -25 5 -25
24 0 40 11 56 36 56 15 0 24 6 24 15 0 22 -46 19 -70 -5z"/>
<path d="M1725 1340 c-8 -13 3 -30 20 -30 14 0 27 24 18 34 -10 9 -31 7 -38
-4z"/>
<path d="M1350 1191 c0 -128 2 -151 15 -151 13 0 15 21 15 128 l0 127 51 -115
c28 -63 53 -121 56 -128 11 -26 27 -3 79 113 l53 120 1 -122 c0 -103 2 -123
15 -123 13 0 15 23 15 150 0 141 -1 150 -19 150 -15 0 -31 -28 -72 -119 -30
-66 -56 -117 -59 -115 -3 3 -28 55 -55 117 -40 89 -55 113 -73 115 -22 3 -22
2 -22 -147z"/>
<path d="M2990 1280 c0 -23 -4 -30 -20 -30 -11 0 -20 -7 -20 -15 0 -8 9 -15
20 -15 18 0 20 -7 20 -80 0 -74 2 -81 25 -96 24 -15 55 -14 55 3 0 5 -10 13
-22 18 -20 9 -23 18 -26 83 -3 71 -3 72 23 72 16 0 25 6 25 15 0 9 -9 15 -25
15 -21 0 -25 5 -25 30 0 20 -5 30 -15 30 -10 0 -15 -10 -15 -30z"/>
<path d="M1872 1245 c-34 -15 -62 -63 -62 -107 0 -34 36 -87 67 -99 34 -13 93
-3 93 16 0 10 -10 12 -39 8 -53 -7 -81 20 -81 80 0 59 33 92 85 84 25 -4 35
-2 35 8 0 27 -47 32 -98 10z"/>
<path d="M2075 1234 c-24 -26 -25 -26 -25 -5 0 12 -6 21 -15 21 -12 0 -15 -18
-15 -105 0 -82 3 -105 14 -105 9 0 15 22 19 77 5 64 10 81 28 96 12 10 28 16
36 13 8 -3 13 2 13 14 0 28 -26 25 -55 -6z"/>
<path d="M2203 1241 c-71 -44 -64 -158 11 -195 32 -16 44 -17 77 -7 51 15 69
44 69 108 0 39 -5 58 -23 78 -30 36 -91 43 -134 16z m107 -31 c14 -14 20 -33
20 -65 0 -32 -6 -51 -20 -65 -47 -47 -120 -8 -120 64 0 73 73 113 120 66z"/>
<path d="M2441 1246 c-55 -31 -46 -78 21 -112 39 -20 49 -29 46 -47 -2 -17
-11 -23 -35 -25 -18 -2 -41 2 -53 8 -16 9 -20 8 -20 -5 0 -41 109 -41 136 1
23 34 9 61 -47 89 -34 18 -49 31 -49 45 0 23 37 35 75 26 18 -5 25 -2 25 8 0
28 -58 35 -99 12z"/>
<path d="M2634 1241 c-57 -35 -68 -135 -21 -179 49 -44 135 -34 162 18 23 45
19 114 -8 145 -30 36 -91 43 -133 16z m105 -37 c43 -54 12 -144 -50 -144 -44
0 -69 31 -69 85 0 80 74 116 119 59z"/>
<path d="M1730 1145 c0 -87 3 -105 15 -105 12 0 15 18 15 105 0 87 -3 105 -15
105 -12 0 -15 -18 -15 -105z"/>
<path d="M1400 883 c-25 -9 -40 -35 -40 -70 0 -26 -4 -33 -20 -33 -11 0 -20
-7 -20 -15 0 -8 9 -15 20 -15 19 0 20 -7 20 -95 0 -78 3 -95 15 -95 12 0 15
17 15 95 0 95 0 95 25 95 16 0 25 6 25 15 0 9 -9 15 -25 15 -21 0 -25 5 -25
28 0 32 16 52 43 52 10 0 17 5 15 13 -5 14 -26 18 -48 10z"/>
<path d="M2025 861 c-34 -14 -46 -37 -43 -78 2 -30 9 -42 36 -58 90 -55 97
-61 100 -87 2 -19 -3 -30 -19 -38 -22 -12 -80 -10 -111 4 -13 6 -18 4 -18 -8
0 -39 109 -50 154 -15 20 16 26 29 26 59 0 42 -3 45 -92 100 -52 32 -60 56
-31 85 13 13 28 16 65 13 41 -4 48 -3 46 11 -4 18 -79 26 -113 12z"/>
<path d="M2217 833 c-4 -3 -7 -17 -7 -30 0 -16 -6 -23 -20 -23 -11 0 -20 -7
-20 -15 0 -8 9 -15 20 -15 18 0 20 -7 20 -83 0 -91 8 -107 52 -107 34 0 39 27
6 32 -21 3 -23 9 -26 81 -3 77 -3 77 23 77 16 0 25 6 25 15 0 9 -9 15 -25 15
-21 0 -25 5 -25 30 0 29 -9 38 -23 23z"/>
<path d="M2717 833 c-4 -3 -7 -17 -7 -30 0 -16 -6 -23 -20 -23 -11 0 -20 -7
-20 -15 0 -8 9 -15 20 -15 18 0 20 -7 20 -79 0 -89 14 -114 58 -109 34 4 42
28 9 28 -31 0 -37 15 -37 96 l0 64 30 0 c20 0 30 5 30 15 0 10 -10 15 -30 15
-27 0 -30 3 -30 30 0 29 -9 38 -23 23z"/>
<path d="M1507 769 c-24 -14 -47 -62 -47 -99 0 -88 81 -136 159 -95 58 30 68
138 16 182 -28 25 -95 31 -128 12z m111 -37 c46 -60 15 -142 -53 -142 -58 0
-91 63 -64 124 21 46 88 56 117 18z"/>
<path d="M1722 673 c2 -88 6 -108 18 -108 12 0 16 18 20 83 5 85 14 102 53
102 9 0 17 7 17 15 0 20 -29 19 -52 -2 -17 -15 -18 -15 -18 0 0 10 -8 17 -20
17 -20 0 -21 -5 -18 -107z"/>
<path d="M2358 773 c-10 -2 -18 -14 -18 -25 0 -15 3 -18 13 -11 28 23 66 24
87 3 30 -30 25 -38 -25 -46 -25 -3 -56 -15 -70 -26 -69 -54 20 -143 93 -92 18
12 22 13 22 1 0 -7 7 -14 15 -14 12 0 15 17 15 86 0 109 -13 132 -73 130 -23
-1 -50 -3 -59 -6z m102 -121 c0 -32 -29 -62 -60 -62 -35 0 -56 29 -37 52 25
32 97 39 97 10z"/>
<path d="M2552 673 c2 -88 6 -108 18 -108 12 0 16 18 20 80 6 91 12 105 46
105 15 0 24 6 24 15 0 20 -34 19 -54 -1 -15 -14 -16 -14 -16 0 0 9 -9 16 -20
16 -20 0 -21 -5 -18 -107z"/>
<path d="M2840 690 c0 -77 3 -93 20 -110 24 -24 67 -26 98 -4 20 14 22 14 22
0 0 -9 7 -16 15 -16 12 0 15 19 15 110 0 91 -3 110 -15 110 -12 0 -15 -15 -15
-78 0 -88 -14 -112 -63 -112 -37 0 -47 25 -47 114 0 61 -3 76 -15 76 -12 0
-15 -17 -15 -90z"/>
<path d="M3080 620 c0 -138 2 -159 15 -154 11 5 15 22 15 66 0 59 0 59 22 44
12 -9 37 -16 56 -16 81 0 123 133 61 198 -24 26 -90 30 -109 7 -7 -8 -16 -15
-21 -15 -5 0 -9 7 -9 15 0 8 -7 15 -15 15 -13 0 -15 -24 -15 -160z m148 112
c20 -26 19 -84 -4 -119 -17 -26 -74 -32 -93 -10 -33 40 -19 130 23 147 26 11
57 3 74 -18z"/>
<path d="M3342 764 c-17 -12 -22 -24 -20 -47 2 -27 10 -36 47 -53 79 -38 77
-81 -3 -72 -40 5 -47 3 -44 -11 6 -33 110 -25 129 10 19 36 3 67 -49 91 -26
13 -48 31 -50 40 -5 25 33 42 69 29 26 -9 29 -8 29 10 0 16 -7 19 -43 19 -23
0 -53 -7 -65 -16z"/>
</g>
</svg>
