<?xml version="1.0" standalone="no"?>
<!DOCTYPE svg PUBLIC "-//W3C//DTD SVG 20010904//EN"
 "http://www.w3.org/TR/2001/REC-SVG-20010904/DTD/svg10.dtd">
<svg version="1.0" xmlns="http://www.w3.org/2000/svg"
 width="842.000000pt" height="900.000000pt" viewBox="0 0 842.000000 900.000000"
 preserveAspectRatio="xMidYMid meet">

<g transform="translate(0.000000,900.000000) scale(0.100000,-0.100000)"
fill="#000000" stroke="none">
<path d="M4004 8332 c-34 -2 -43 -7 -45 -25 -2 -12 -1 -305 2 -652 4 -346 9
-929 13 -1295 l7 -665 -27 45 c-14 25 -118 209 -231 410 -113 201 -245 435
-293 520 -172 304 -232 411 -484 860 -141 250 -257 459 -259 464 -3 8 -566
-310 -622 -351 -14 -10 -5 -29 73 -160 99 -164 476 -796 951 -1591 172 -288
311 -525 309 -527 -1 -2 -73 38 -158 90 -356 213 -2104 1246 -2111 1248 -5 1
-89 -139 -188 -311 -178 -309 -180 -312 -158 -326 12 -8 351 -197 752 -421
689 -385 1065 -594 1393 -777 78 -44 142 -82 142 -85 0 -3 -75 -2 -167 1 -93
3 -373 8 -623 11 -250 4 -707 10 -1015 15 -308 6 -624 10 -702 10 l-143 0 0
-366 0 -367 383 7 c682 11 2258 29 2262 25 2 -2 -121 -73 -273 -158 -152 -85
-347 -193 -432 -241 -85 -48 -276 -154 -425 -237 -148 -83 -405 -226 -570
-318 -165 -92 -369 -206 -453 -252 -83 -47 -150 -88 -148 -91 240 -420 349
-609 356 -616 5 -4 57 21 117 57 216 129 2119 1254 2141 1266 23 12 23 12 11
-11 -16 -30 -81 -141 -239 -408 -70 -118 -310 -523 -533 -900 -222 -377 -439
-743 -481 -814 -42 -71 -75 -130 -74 -131 2 -1 127 -73 278 -160 151 -86 289
-166 307 -176 l31 -20 155 273 c85 150 373 660 639 1133 267 473 490 869 497
880 10 16 11 -83 7 -470 -3 -269 -9 -865 -13 -1322 l-6 -833 357 0 358 0 -7
503 c-14 1109 -24 2131 -21 2135 2 1 40 -61 84 -140 43 -79 269 -480 501 -893
233 -412 489 -868 569 -1011 l147 -262 40 24 c22 13 163 95 312 181 150 87
273 162 273 167 0 9 -76 137 -934 1571 -227 380 -412 691 -410 693 1 2 136
-77 300 -174 165 -97 470 -278 679 -402 209 -123 499 -295 645 -382 562 -334
641 -380 648 -380 4 0 25 33 48 73 22 39 102 180 178 311 116 201 136 241 124
250 -8 6 -527 297 -1154 646 -840 469 -1132 636 -1114 639 30 4 2173 -26 2438
-34 l182 -6 0 367 0 367 -707 -7 c-390 -4 -985 -11 -1323 -15 -338 -5 -616 -8
-617 -7 -2 1 232 133 520 293 988 551 1782 995 1786 999 4 3 -175 321 -309
547 -50 85 -53 88 -73 74 -12 -8 -110 -66 -217 -129 -107 -63 -485 -287 -840
-498 -355 -210 -681 -404 -725 -430 -123 -72 -406 -240 -445 -263 l-34 -21 21
34 c11 19 200 339 418 710 219 371 512 868 652 1104 139 235 250 432 248 437
-3 4 -18 14 -33 21 -15 8 -150 85 -300 173 -155 89 -277 154 -281 149 -5 -5
-200 -349 -433 -764 -623 -1107 -828 -1469 -849 -1504 -20 -31 -20 -30 -14
309 12 757 26 2298 20 2303 -6 7 -583 10 -661 4z"/>
</g>
</svg>
